<?xml version="1.0" standalone="no"?>
<!DOCTYPE svg PUBLIC "-//W3C//DTD SVG 20010904//EN"
 "http://www.w3.org/TR/2001/REC-SVG-20010904/DTD/svg10.dtd">
<svg version="1.0" xmlns="http://www.w3.org/2000/svg"
 width="1200.000000pt" height="1200.000000pt" viewBox="0 0 1200.000000 1200.000000"
 preserveAspectRatio="xMidYMid meet">

<g transform="translate(0.000000,1200.000000) scale(0.100000,-0.100000)"
fill="#000000" stroke="none">
<path d="M6955 7633 c-83 -20 -82 -144 1 -179 67 -28 124 14 124 91 0 71 -50
106 -125 88z"/>
<path d="M4416 7599 c-14 -17 -26 -43 -26 -58 0 -35 1326 -3750 1347 -3773 48
-55 153 -11 153 63 0 38 -1331 3752 -1353 3777 -32 34 -88 30 -121 -9z"/>
<path d="M7463 7607 c-10 -13 -290 -801 -622 -1750 -333 -950 -607 -1727 -611
-1727 -3 0 -237 690 -519 1533 -420 1251 -518 1536 -539 1556 -21 19 -33 22
-65 18 -52 -7 -77 -31 -77 -76 0 -37 1110 -3362 1131 -3387 6 -7 25 -18 43
-24 46 -15 83 1 101 42 38 93 1305 3730 1305 3748 0 29 -26 76 -45 84 -37 14
-84 6 -102 -17z"/>
<path d="M6840 7299 c-14 -5 -31 -19 -38 -30 -21 -33 -682 -1959 -682 -1986 0
-37 18 -63 56 -79 29 -12 39 -12 67 -1 17 8 38 25 44 38 11 22 496 1420 629
1814 48 141 53 163 43 192 -6 20 -22 39 -39 48 -33 17 -44 17 -80 4z"/>
</g>
</svg>
